<svg width="97" height="97" viewBox="0 0 97 97" fill="none" xmlns="http://www.w3.org/2000/svg">
<circle cx="48.5" cy="48.5" r="39.5" stroke="black" stroke-width="4"/>
<path d="M50.8096 95.1523C50.8096 96.1728 49.9823 97 48.9619 97C47.9415 97 47.1143 96.1728 47.1143 95.1523V84.0111C47.1143 83.0161 47.9451 82.2253 48.94 82.213C49.9537 82.2004 50.8096 82.9987 50.8096 84.0125V95.1523Z" fill="black"/>
<path d="M95.1523 46.1904C96.1728 46.1904 97 47.0177 97 48.0381C97 49.0585 96.1728 49.8857 95.1523 49.8857H84.0121C83.0171 49.8857 82.2262 49.0549 82.2135 48.06C82.2005 47.0463 82.9987 46.1904 84.0125 46.1904H95.1523Z" fill="black"/>
<path d="M12.9875 46.1904C14.0013 46.1904 14.7995 47.0463 14.7865 48.06C14.7738 49.0549 13.9829 49.8857 12.9879 49.8857H1.84766C0.827245 49.8857 -4.46036e-08 49.0585 0 48.0381C2.39177e-06 47.0177 0.827247 46.1904 1.84766 46.1904H12.9875Z" fill="black"/>
<path d="M48.9619 0C49.9823 5.66942e-06 50.8096 0.827248 50.8096 1.84766V12.9865C50.8096 14.0003 49.9537 14.7986 48.94 14.7861C47.9451 14.7737 47.1143 13.9829 47.1143 12.9879V1.84766C47.1143 0.827244 47.9415 0 48.9619 0Z" fill="black"/>
</svg>
