<svg width="677" height="403" viewBox="0 0 677 403" fill="none" xmlns="http://www.w3.org/2000/svg">
<path fill-rule="evenodd" clip-rule="evenodd" d="M0 201.013V200.013C7 185.013 16 170.013 27 155.013C100 56.0129 215 -0.987059 338 0.0129413C462 -0.987059 576 56.0129 650 155.013C660 170.013 670 185.013 677 200.013V201.013V202.013C670 218.013 660 233.013 650 247.013C576 347.013 462 404.013 338 402.013C215 404.013 100 347.013 27 247.013C16 233.013 7 218.013 0 202.013V201.013ZM338 53.0129C379 53.0129 416 70.0129 443 96.0129C470 123.013 487 160.013 487 201.013C487 242.013 470 279.013 443 306.013C416 333.013 379 350.013 338 350.013C298 350.013 260 333.013 234 306.013H233C207 279.013 190 242.013 190 201.013C190 160.013 207 123.013 233 97.0129V96.0129C260 70.0129 297 53.0129 338 53.0129ZM393 147.013C379 133.013 360 124.013 338 124.013C317 124.013 298 133.013 284 147.013C270 161.013 261 180.013 261 201.013C261 223.013 270 242.013 284 256.013C298 270.013 317 278.013 338 278.013C360 278.013 379 270.013 393 256.013C407 242.013 415 223.013 415 201.013C415 180.013 407 161.013 393 147.013Z" fill="white"/>
</svg>
